<?xml version="1.0" standalone="no"?>
<!DOCTYPE svg PUBLIC "-//W3C//DTD SVG 20010904//EN"
 "http://www.w3.org/TR/2001/REC-SVG-20010904/DTD/svg10.dtd">
<svg version="1.0" xmlns="http://www.w3.org/2000/svg"
 width="300.000000pt" height="300.000000pt" viewBox="0 0 300.000000 300.000000"
 preserveAspectRatio="xMidYMid meet">
<metadata>
Created by potrace 1.10, written by Peter Selinger 2001-2011
</metadata>
<g transform="translate(0.000000,300.000000) scale(0.100000,-0.100000)"
fill="#f20505" stroke="none">
<path d="M1185 2935 c-297 -69 -506 -185 -721 -399 -217 -218 -341 -445 -405
-746 -32 -150 -33 -429 -1 -577 114 -528 483 -944 988 -1111 254 -85 557 -95
819 -27 551 143 967 586 1082 1152 27 134 25 433 -5 570 -125 579 -563 1018
-1140 1141 l-92 20 2 -215 3 -215 85 -24 c221 -63 411 -200 564 -406 l28 -38
-54 25 c-85 39 -142 45 -414 45 l-254 0 0 -640 0 -640 85 0 85 0 0 260 0 261
151 -3 150 -3 118 -220 119 -220 -31 -45 c-44 -64 -172 -190 -242 -237 -329
-221 -710 -252 -1058 -85 -118 56 -244 148 -317 230 l-51 57 218 6 c128 4 235
12 258 19 109 34 196 105 237 195 32 72 33 230 1 295 -30 61 -88 118 -145 145
-46 22 -47 22 -23 33 34 16 101 78 125 116 32 53 44 127 30 203 -14 83 -38
130 -89 176 -87 79 -129 89 -405 96 l-229 6 91 92 c141 143 324 251 485 285
l57 12 0 218 c0 120 -1 218 -2 217 -2 0 -48 -11 -103 -24z m82 -195 c0 -119
-4 -183 -11 -188 -6 -4 -38 -16 -71 -27 -176 -55 -296 -127 -426 -255 -111
-109 -128 -134 -102 -149 10 -5 112 -11 228 -14 181 -4 219 -7 276 -26 130
-43 189 -124 195 -266 4 -110 -21 -166 -103 -226 -32 -24 -61 -48 -65 -54 -9
-13 31 -55 52 -55 29 0 102 -72 126 -124 30 -63 33 -186 8 -265 -35 -107 -146
-186 -294 -208 -14 -2 -109 -5 -212 -6 -205 -2 -222 -7 -198 -51 7 -14 40 -52
73 -85 278 -282 730 -391 1087 -262 178 64 296 134 409 244 66 65 143 159 154
190 5 12 -9 48 -39 105 -26 48 -76 143 -111 212 -36 69 -73 134 -84 144 -16
17 -34 19 -166 20 -107 1 -152 -3 -161 -12 -11 -10 -14 -66 -14 -257 0 -177
-3 -245 -12 -246 -6 0 -24 -2 -41 -3 -16 -2 -40 1 -52 5 l-21 8 1 608 2 608
228 3 c244 3 331 -7 412 -46 107 -53 78 32 -61 179 -124 132 -278 230 -439
278 -38 12 -77 26 -85 31 -11 7 -14 38 -15 152 -2 179 2 218 23 218 40 0 261
-62 287 -80 6 -4 27 -13 48 -19 20 -7 37 -17 37 -23 0 -6 3 -8 7 -5 20 21 293
-173 400 -284 68 -71 113 -122 113 -130 0 -4 13 -22 30 -40 16 -19 30 -38 30
-43 0 -5 6 -17 14 -25 39 -44 153 -294 159 -350 2 -15 6 -32 10 -38 10 -16 36
-146 44 -217 9 -85 9 -258 0 -341 -19 -168 -92 -382 -180 -535 -27 -47 -55
-94 -61 -105 -13 -24 -73 -100 -132 -167 -23 -26 -76 -76 -117 -110 -102 -86
-117 -97 -157 -119 -38 -21 -61 -35 -102 -61 -14 -10 -33 -18 -42 -18 -9 0
-16 -4 -16 -9 0 -8 -49 -25 -59 -21 -2 1 -7 -3 -10 -8 -11 -18 -216 -79 -324
-97 -155 -25 -380 -24 -497 1 -14 3 -36 8 -50 10 -90 16 -303 100 -415 163
-219 124 -443 358 -554 578 -113 226 -162 425 -162 662 0 175 8 240 53 416 20
82 151 365 168 365 6 0 10 5 10 11 0 24 101 150 195 244 94 94 225 192 345
257 62 33 218 94 255 99 6 1 21 6 35 12 31 12 87 24 121 26 l26 1 0 -180z"/>
<path d="M712 2002 c-17 -17 -19 -38 -21 -213 -2 -250 -19 -232 201 -227 158
3 165 4 223 33 113 57 156 181 102 298 -45 98 -108 123 -329 126 -142 2 -159
0 -176 -17z m409 -40 c62 -30 93 -85 93 -167 0 -65 -11 -94 -53 -138 -51 -56
-72 -61 -264 -67 l-177 -5 0 203 0 203 178 -3 c160 -3 181 -5 223 -26z"/>
<path d="M1830 2005 c-9 -11 -12 -78 -12 -257 0 -223 2 -243 19 -255 23 -17
338 -12 371 6 12 7 22 9 22 6 0 -9 93 57 112 80 37 43 51 100 46 190 -4 74 -8
91 -34 128 -19 27 -51 53 -90 74 -60 32 -61 32 -241 38 -153 4 -182 3 -193
-10z m416 -42 c82 -44 124 -116 124 -213 0 -73 -18 -119 -65 -165 -62 -63
-112 -75 -307 -75 l-158 0 0 241 0 241 183 -4 c164 -3 186 -5 223 -25z"/>
<path d="M523 1933 c-25 -35 -62 -146 -79 -233 -17 -95 -17 -291 0 -384 9 -43
13 -83 10 -87 -3 -5 -1 -9 3 -9 5 0 15 -21 22 -46 31 -104 68 -151 85 -107 4
10 7 208 7 442 0 354 -2 427 -14 438 -12 13 -17 11 -34 -14z m27 -430 l-1
-448 -25 65 c-90 234 -95 482 -13 730 18 55 34 100 36 100 2 0 3 -201 3 -447z"/>
<path d="M2523 1678 c-6 -7 -22 -38 -36 -68 -14 -30 -38 -68 -54 -85 -31 -33
-87 -75 -101 -75 -5 0 -19 -11 -32 -25 l-24 -25 27 -53 c59 -114 117 -213 140
-242 23 -28 25 -29 42 -12 31 31 79 204 84 299 6 136 5 248 -1 248 -5 0 -8 6
-8 14 0 22 -26 39 -37 24z m26 -174 c1 -130 -22 -250 -75 -394 -3 -8 -39 48
-89 140 -47 84 -84 154 -82 156 1 1 22 11 45 23 91 46 180 158 183 230 3 57
18 -69 18 -155z"/>
<path d="M747 1473 c-28 -3 -40 -10 -47 -28 -5 -12 -9 -117 -10 -233 0 -180 2
-212 15 -226 19 -19 7 -18 205 -16 187 1 234 13 295 75 49 51 65 99 64 186 -1
116 -45 185 -138 220 -46 17 -83 22 -201 24 -80 2 -162 1 -183 -2z m359 -38
c91 -27 135 -89 142 -200 3 -62 1 -76 -25 -124 -22 -43 -39 -60 -83 -85 l-55
-31 -182 -3 -183 -4 0 231 0 231 168 0 c119 0 183 -4 218 -15z"/>
</g>
</svg>
